<svg width="50" height="50" viewBox="0 0 50 50" fill="none" xmlns="http://www.w3.org/2000/svg">
<path fill-rule="evenodd" clip-rule="evenodd" d="M22.4884 0.142535C14.1939 0.944082 6.66503 6.05212 2.8793 13.4465C1.21299 16.7012 0.43461 19.2915 0.0936059 22.7173C-0.133998 25.0024 0.0619631 28.0443 0.588969 30.409C1.72634 35.5124 4.67732 40.5114 8.47108 43.7618C15.3389 49.6457 24.342 51.4974 32.7758 48.7605C35.5239 47.8687 38.9104 46.0096 40.9196 44.2896C41.4055 43.8737 42.0097 43.3577 42.2622 43.1432C43.0172 42.5019 45.0942 39.9563 46.0191 38.5388C48.9644 34.0242 50.3665 28.5113 49.9179 23.2094C49.605 19.5119 48.9297 17.071 47.3307 13.857C43.4788 6.11457 36.0267 0.99754 27.3591 0.143659C25.4181 -0.0475374 24.4581 -0.0478591 22.4884 0.142535ZM28.4926 0.786598C30.431 1.05597 32.6316 1.68206 34.6063 2.52583C42.092 5.72399 47.5394 12.5401 49.0512 20.5994C49.4985 22.9837 49.4661 27.7188 48.9877 29.8717C47.338 37.2967 42.7875 43.3015 36.2615 46.6647C32.7565 48.4712 29.8645 49.2247 25.9013 49.3644C19.3758 49.5946 13.6918 47.5672 8.75507 43.2487C4.82911 39.8145 2.09176 35.0406 0.968682 29.6696C0.562305 27.7257 0.563269 22.2943 0.970449 20.3586C3.10048 10.2316 10.9685 2.54348 20.922 0.862531C22.5046 0.595402 26.8061 0.552057 28.4926 0.786598ZM24.1319 3.93467C23.7589 4.82692 23.6743 5.26839 23.8762 5.26839C23.974 5.26839 24.0541 5.2045 24.0541 5.12664C24.0541 4.84378 24.9181 4.80862 25.1191 5.0833C25.4946 5.59652 25.5089 5.13756 25.1451 4.24515C24.9425 3.74861 24.6876 3.3423 24.5782 3.34214C24.469 3.34214 24.2682 3.60863 24.1319 3.93467ZM20.1325 3.96903C19.7109 4.43474 19.8492 5.2944 20.3869 5.55077C20.8613 5.7768 21.554 5.57581 21.7113 5.16645C21.8075 4.9157 21.394 4.86401 21.2432 5.10786C21.1886 5.19615 20.9689 5.26839 20.7549 5.26839C20.4734 5.26839 20.3379 5.15698 20.2645 4.86497C20.111 4.25349 20.4587 3.93676 21.1428 4.06503C21.6433 4.15894 21.6824 4.14257 21.4949 3.91685C21.2064 3.5693 20.4689 3.59771 20.1325 3.96903ZM24.846 4.50585C24.8521 4.57199 24.7488 4.62625 24.6163 4.62625C24.3704 4.62625 24.2821 4.13085 24.4909 3.92231C24.5933 3.81973 24.816 4.18543 24.846 4.50585ZM29.7937 4.78823C29.644 5.38173 29.6096 5.78932 29.7042 5.84776C29.9079 5.97346 29.9201 5.95146 30.134 5.07687C30.3549 4.17451 30.3671 3.82358 30.1776 3.82358C30.1002 3.82358 29.9273 4.25767 29.7937 4.78823ZM16.8662 4.79177C16.4327 4.96594 16.4342 4.94604 16.7835 5.92915C16.9367 6.36034 17.1584 6.7132 17.2761 6.7132C17.4236 6.7132 17.4552 6.60323 17.378 6.35986C17.2704 6.02114 17.2816 6.0168 17.6483 6.25471C18.143 6.57562 18.5958 6.45666 18.1274 6.12869C17.8793 5.955 17.8224 5.78772 17.8923 5.43824C17.9639 5.08041 17.9111 4.93753 17.6568 4.80156C17.2824 4.60121 17.3388 4.60201 16.8662 4.79177ZM32.1076 5.41255C31.7234 6.30544 31.6855 6.55267 31.933 6.55267C32.026 6.55267 32.1796 6.33049 32.2742 6.05886C32.4779 5.47516 32.6844 5.61258 32.7565 6.37977C32.8361 7.22739 33.1263 7.13556 33.5067 6.14234C33.9068 5.0971 33.905 5.10786 33.6832 5.10786C33.5902 5.10786 33.4366 5.33004 33.342 5.60166C33.1384 6.18536 32.9318 6.04795 32.8597 5.28075C32.7829 4.46347 32.4944 4.5142 32.1076 5.41255ZM17.4509 5.16677C17.5886 5.3326 17.5799 5.43053 17.4156 5.56682C17.1581 5.78033 16.9867 5.65046 16.9867 5.24158C16.9867 4.89354 17.1958 4.85983 17.4509 5.16677ZM14.2175 6.00251C14.1718 6.04827 14.351 6.48556 14.6159 6.97439C14.9042 7.5064 15.1559 7.80451 15.2433 7.71718C15.3305 7.63001 15.221 7.27122 14.9702 6.82284C14.5388 6.05132 14.3618 5.85835 14.2175 6.00251ZM35.3183 7.0744C34.8271 7.92282 34.8994 8.32657 35.426 7.67657L35.7091 7.32708L35.7486 7.84497C35.7909 8.39929 35.8895 8.63961 36.0744 8.63961C36.1378 8.63961 36.1639 8.36863 36.1322 8.03761C36.0799 7.48762 36.1189 7.41891 36.5844 7.24328C36.8647 7.13765 37.0497 6.97937 36.9956 6.89187C36.9331 6.7909 36.6891 6.81931 36.3296 6.96941C35.7811 7.19849 35.7678 7.19593 35.9314 6.89011C36.1401 6.50065 36.1491 6.2316 35.9536 6.2316C35.8725 6.2316 35.5866 6.61094 35.3183 7.0744ZM11.4701 7.97002C10.8938 8.60638 11.3368 9.60281 12.1959 9.60281C12.6462 9.60281 13.1317 9.15894 13.1317 8.74733C13.1317 8.36558 12.9146 8.4155 12.7281 8.84028C12.5355 9.27918 11.8805 9.32686 11.6241 8.92054C11.4049 8.57315 11.6558 8.10439 12.1049 8.02203C12.654 7.92138 12.7392 7.6764 12.225 7.6764C11.9552 7.6764 11.6167 7.80804 11.4701 7.97002ZM21.4842 8.63303C20.7332 8.79356 19.6142 9.11656 18.9974 9.35094C17.9321 9.75564 17.8659 9.76255 17.6796 9.48932C17.2964 8.92745 16.9628 8.67493 16.4743 8.57732C15.8604 8.45467 14.9095 8.69933 14.3785 9.11672C13.9255 9.47294 13.2278 10.8437 13.0689 11.6898C12.9746 12.1916 13.0145 12.1551 13.4411 11.3496C14.2537 9.81504 15.2516 9.20148 16.1662 9.67409C16.9204 10.0639 16.7772 10.4021 15.5172 11.2082C14.139 12.0897 12.0382 14.2397 10.9683 15.8636C10.0184 17.3056 9.23967 19.0474 8.7729 20.7747C8.34885 22.3441 8.18341 26.0555 8.4645 27.6961C8.92115 30.362 10.0389 32.9793 11.6188 35.0825C12.0975 35.72 12.4892 36.3493 12.4892 36.4812C12.4892 36.6132 12.6378 37.1181 12.8195 37.6033C13.1481 38.4811 13.8929 39.3016 14.361 39.3016C14.5092 39.3016 14.4095 39.1398 14.1019 38.881C13.6189 38.4749 13.1317 37.5825 13.1317 37.1038C13.1317 36.9659 13.5065 37.1919 14.0553 37.6611C16.5906 39.8285 19.7913 41.2555 22.9715 41.6363C23.8021 41.7357 23.9062 41.7902 23.9884 42.1697C24.2515 43.3823 24.9645 44.2902 25.8942 44.5969C26.2955 44.7293 26.3944 44.8497 26.3894 45.2003C26.3845 45.5503 26.4831 45.671 26.8801 45.801C27.5609 46.024 27.5366 46.2931 26.8397 46.2475C26.3509 46.2155 26.2968 46.2446 26.4657 46.4481C26.7189 46.753 27.4907 46.7559 27.742 46.4531C28.0575 46.0733 27.8668 45.684 27.2666 45.482C26.7322 45.3024 26.5978 44.943 27.106 45.0525C27.2385 45.081 27.7083 45.1361 28.15 45.1746L28.9531 45.2449L27.8779 44.8605C26.6159 44.4092 25.7198 43.8863 25.4977 43.4717C25.4104 43.3089 25.3391 42.8565 25.3391 42.4664V41.7573L26.6643 41.6559C27.3932 41.6002 28.5315 41.4016 29.1941 41.2146C29.8567 41.0275 30.8686 40.8622 31.4428 40.8468C32.1929 40.8269 32.6677 40.7166 33.1294 40.4554L33.7719 40.092L33.0089 40.1883C32.5892 40.2413 32.2459 40.2454 32.2459 40.1977C32.2459 40.1499 32.5532 39.9547 32.9286 39.764C38.1784 37.0959 41.7227 31.185 41.7227 25.0977C41.7227 16.8352 35.9652 9.94764 27.8394 8.48951C26.3514 8.22254 23.0563 8.29687 21.4842 8.63303ZM29.0429 9.33215C34.1928 10.6643 38.5544 14.6637 40.2802 19.6362C42.9223 27.2497 39.601 35.6848 32.5225 39.3386C31.8845 39.6678 31.2724 39.9386 31.1622 39.9406C30.7651 39.947 29.6769 38.7727 29.2553 37.8827C28.3651 36.0036 28.6324 33.9517 29.9681 32.4088L30.5848 31.6965L31.1343 32.0314C32.688 32.9785 35.933 33.3906 37.1417 32.7944C38.4169 32.1653 39.4497 30.1924 39.5954 28.1078C39.6804 26.8904 39.5214 26.2475 38.9492 25.4957C38.4858 24.8866 38.0403 24.7049 36.9943 24.6986C36.0291 24.693 35.1023 25.1037 34.8996 25.6272C34.8545 25.7436 35.0077 25.6893 35.24 25.5068C35.7708 25.0894 36.354 25.0854 37.0259 25.4949C38.2614 26.2476 38.5504 27.8178 37.7393 29.3697C36.9392 30.9002 35.4708 31.3294 33.7426 30.5379C32.6764 30.0496 32.6693 30.0265 33.3377 29.2092C34.3673 27.9499 34.5327 27.2946 34.0889 26.2329C33.8403 25.6383 32.575 24.2297 32.0262 23.9364C31.7408 23.7839 31.7396 23.7558 32.0005 23.3579C32.1775 23.0878 32.3219 22.3886 32.408 21.3854C32.4875 20.4585 32.6521 19.6254 32.8161 19.3212C33.1446 18.7115 33.9704 18.1111 34.4804 18.1111C35.4481 18.1111 36.3389 20.1207 35.8693 21.2441C35.6169 21.8474 34.7897 22.4439 34.2041 22.4449C33.9978 22.4452 33.8772 22.5168 33.9325 22.6061C34.1916 23.0251 35.3901 22.6475 36.05 21.9391C36.573 21.3777 36.7652 20.7257 36.7787 19.4694C36.8004 17.4162 35.9661 16.4828 34.0102 16.3724C32.6109 16.2934 31.8897 16.6177 31.2605 17.6093C30.8488 18.2582 30.7995 18.4792 30.7926 19.7078C30.7836 21.3152 30.5053 22.0338 29.7129 22.4945C29.032 22.8904 28.4755 22.7507 28.0623 22.08C27.3019 20.8458 27.296 20.1756 28.0225 17.6544C28.7633 15.0843 26.8554 12.3319 24.333 12.3319C22.0557 12.3319 20.0981 15.0064 20.6859 17.3147C20.7862 17.7087 20.9242 18.3559 20.9926 18.7533C21.0612 19.1506 21.1716 19.6027 21.2379 19.7579C21.5823 20.5615 20.606 22.1497 19.3851 22.7721C18.7511 23.0954 17.4075 23.1968 17.0193 22.9506C16.8551 22.8466 16.8696 22.7705 17.0872 22.592C17.6143 22.1598 19.252 19.9944 19.6592 19.1912C20.3598 17.8092 20.1412 16.444 19.1466 15.9911C18.6642 15.7713 18.0587 16.0035 17.7861 16.5127C17.602 16.8566 17.602 16.8566 18.0858 16.499C18.6805 16.0597 19.0163 16.1661 19.3188 16.8898C19.5201 17.3712 19.5173 17.5444 19.2961 18.2967C19.0791 19.0347 18.8395 19.3509 17.5821 20.5593C16.778 21.3319 16.0281 21.9639 15.9155 21.9639C15.5191 21.9639 15.1736 20.2462 15.2553 18.6821C15.3265 17.3229 15.4002 17.0691 16.3768 14.8197C17.385 12.4971 17.6517 11.7827 17.857 10.8539C17.9288 10.5294 18.1433 10.3352 18.7046 10.0871C21.6859 8.76916 25.7259 8.4741 29.0429 9.33215ZM15.4791 13.4698C14.9142 14.654 14.2225 16.273 13.9422 17.0677C13.0344 19.6415 13.1292 22.1364 14.1825 23.3874L14.5879 23.869L14.2614 24.8378C12.885 28.9212 16.0454 30.6551 19.3752 27.6435C19.9213 27.1497 20.59 26.4231 20.8613 26.0292C21.1325 25.635 21.3902 25.3483 21.434 25.392C21.5722 25.5302 20.6651 27.9291 19.9301 29.3689C19.5414 30.1306 18.9911 31.017 18.7073 31.3385L18.1914 31.923L17.2175 31.7368C16.0013 31.5042 14.9322 31.6552 14.1788 32.1662C13.8602 32.3823 13.5317 32.5592 13.4491 32.5592C13.3666 32.5592 13.1529 32.2731 12.9743 31.9235C12.5504 31.093 12.5492 29.8626 12.9709 28.9897L13.2922 28.3254L12.8362 28.7621C11.6135 29.9329 11.3459 31.6793 12.1465 33.2654C12.4976 33.9613 12.5814 34.2994 12.5 34.6927L12.3935 35.208L11.8027 34.4053C7.35587 28.3624 7.92689 19.614 13.1317 14.0461C14.1721 12.9333 16.327 11.1375 16.4613 11.2717C16.486 11.2965 16.0442 12.2857 15.4791 13.4698ZM5.72217 16.9473C3.99531 21.3387 3.6829 25.8192 4.79714 30.2119C5.26167 32.0434 6.2071 34.3251 6.50152 34.3251C6.80719 34.3251 6.7439 34.0477 6.00664 32.1537C5.09125 29.8024 4.7284 27.7454 4.73305 24.9338C4.73755 22.2662 5.05816 20.4052 5.92054 18.0403C6.45879 16.5644 6.46731 16.5058 6.1406 16.5058C6.006 16.5058 5.81758 16.7045 5.72217 16.9473ZM43.6502 16.6626C43.6502 16.749 43.8233 17.2792 44.035 17.8413C45.7942 22.5123 45.7108 28.1397 43.8148 32.7197C43.2024 34.1991 43.2049 34.1886 43.4412 34.2755C43.9279 34.4546 45.2476 30.7213 45.6463 28.0382C46.1799 24.4461 45.8078 21.0141 44.5135 17.5894C44.2742 16.9562 44.0097 16.5058 43.8772 16.5058C43.7523 16.5058 43.6502 16.5764 43.6502 16.6626ZM18.2478 25.2119C19.3014 25.2522 19.3564 25.2724 19.1215 25.5323C18.7569 25.9356 17.3136 26.6194 16.8267 26.6194C16.2223 26.6194 16.023 26.3348 16.023 25.4718V24.7094L16.5731 24.9391C16.8757 25.0655 17.6292 25.1883 18.2478 25.2119ZM30.6095 25.9242C30.7271 26.0417 30.8916 26.1378 30.9751 26.1378C31.0584 26.1378 31.2438 26.3831 31.3868 26.6827C31.6444 27.2227 31.6092 27.7427 31.2823 28.2248C31.1436 28.4296 31.0705 28.4055 30.7932 28.0642C30.4147 27.5981 29.5153 25.9046 29.5153 25.6577C29.5153 25.4403 30.3218 25.6367 30.6095 25.9242ZM23.4862 29.2156C23.0202 31.0223 21.9464 32.5592 21.1505 32.5592C20.7429 32.5592 20.757 32.4785 21.3168 31.6064C21.8815 30.7269 22.9388 28.4879 23.3553 27.289L23.6526 26.4337L23.7004 27.3168C23.7266 27.8024 23.6302 28.6569 23.4862 29.2156ZM28.4851 31.0743C28.2266 31.4494 27.9913 31.7565 27.9621 31.7565C27.933 31.7565 27.9109 30.98 27.9129 30.0308L27.9166 28.305L28.4358 29.3485L28.9548 30.392L28.4851 31.0743ZM25.7465 33.5224C25.6535 34.5071 25.3002 35.7026 24.5368 37.616C24.2005 38.4588 23.9939 39.2997 23.9359 40.0624L23.8474 41.2245L23.1879 41.1306C19.5625 40.6147 16.4645 39.1853 14.0617 36.9198C13.0444 35.9606 12.9655 35.8391 13.0633 35.3827C13.2177 34.6622 13.2071 34.6661 14.1308 34.985C14.5973 35.1461 15.2576 35.2801 15.5983 35.283C16.2756 35.2888 18.0873 34.8638 18.366 34.634C18.4712 34.5469 19.0268 34.5953 19.7653 34.7555C21.4623 35.1234 22.4641 34.9036 23.4015 33.9573C24.4204 32.9289 25.3319 30.79 25.3372 29.4155C25.3383 29.1432 25.3934 28.8658 25.4596 28.7992C25.6218 28.6359 25.8513 32.4133 25.7465 33.5224ZM27.4889 36.7326C27.6596 37.8005 28.3278 39.0918 29.0955 39.8373L29.8216 40.5427L28.5842 40.8044C27.9036 40.9482 26.9314 41.1125 26.4233 41.1691C25.5187 41.2701 25.4997 41.264 25.4997 40.8728C25.4997 40.653 25.5786 40.2278 25.675 39.9276C26.0234 38.843 27.1738 36.091 27.2786 36.091C27.3378 36.091 27.4324 36.3798 27.4889 36.7326ZM9.5585 37.4682C9.49345 37.5332 9.51642 37.6783 9.60958 37.7905C9.73583 37.9426 9.62308 38.1371 9.16707 38.555C8.38676 39.2695 8.59171 39.5185 9.41539 38.857C9.84859 38.5091 10.0868 38.4096 10.2044 38.5271C10.2972 38.6199 10.4492 38.6695 10.5422 38.6375C10.6352 38.6054 10.4786 38.3026 10.1941 37.9646C9.90963 37.6266 9.62356 37.4032 9.5585 37.4682ZM38.6126 39.3829C38.2124 39.7828 38.1427 40.2507 38.4203 40.6741C38.9301 41.4517 40.2771 41.0784 40.2771 40.1597C40.2771 39.3517 39.1637 38.8321 38.6126 39.3829ZM39.7029 39.7699C40.1025 40.2112 39.7862 40.7856 39.1821 40.7159C38.6969 40.6599 38.5067 40.094 38.8389 39.6941C39.1005 39.379 39.3704 39.4028 39.7029 39.7699ZM10.9975 40.2843C10.4863 40.5447 10.1117 40.8286 10.1653 40.9152C10.2188 41.0019 10.3369 41.0269 10.4275 40.9709C10.693 40.807 11.356 41.2475 11.3186 41.5629C11.2998 41.7207 11.3507 41.8726 11.4319 41.9002C11.635 41.9696 12.2379 40.1085 12.0657 39.9435C11.9894 39.8706 11.5088 40.0239 10.9975 40.2843ZM11.6575 40.6649C11.5152 40.9771 11.4274 41.0253 11.2576 40.8847C11.0774 40.7351 11.0884 40.6675 11.323 40.4896C11.751 40.1648 11.8596 40.2217 11.6575 40.6649ZM36.5828 41.0364C36.5828 41.1075 36.7683 41.4144 36.9952 41.7186C37.222 42.0227 37.4705 42.3799 37.5473 42.5123C37.6405 42.6727 37.7405 42.6995 37.8472 42.5926C37.9537 42.4858 37.8175 42.1768 37.4403 41.6695C36.9172 40.9661 36.5828 40.7192 36.5828 41.0364ZM13.6136 41.3791C13.6136 41.4623 13.6862 41.5751 13.7752 41.6299C13.8729 41.6902 13.7778 42.0007 13.5343 42.416C13.1009 43.1551 13.054 43.315 13.271 43.315C13.3476 43.315 13.6041 43.0223 13.841 42.6645C14.1732 42.1628 14.3433 42.0368 14.5852 42.1134C15.104 42.2781 14.9383 41.9253 14.3273 41.565C13.682 41.1845 13.6136 41.1667 13.6136 41.3791ZM34.4214 42.407C34.1387 42.6136 34.1453 42.6579 34.5769 43.4505C34.8247 43.9058 35.0917 44.2782 35.1699 44.2782C35.4422 44.2782 36.1009 43.4882 36.1009 43.1617C36.1009 42.4017 35.0654 41.9365 34.4214 42.407ZM15.7017 42.6151C15.7017 42.6716 15.8183 42.8029 15.9608 42.9071C16.1964 43.0792 16.1886 43.1575 15.8744 43.773C15.6844 44.1453 15.579 44.5306 15.64 44.6294C15.7049 44.7343 15.9128 44.4914 16.1391 44.0462C16.4425 43.4495 16.5946 43.301 16.8372 43.3644C17.3773 43.5056 17.1724 43.1737 16.5113 42.8366C15.8296 42.489 15.7017 42.4541 15.7017 42.6151ZM35.451 42.7443C35.6712 43.0093 35.6205 43.6643 35.3734 43.7454C35.16 43.8155 34.6056 42.883 34.7358 42.6725C34.879 42.4409 35.2282 42.4759 35.451 42.7443ZM32.696 43.2397C32.6491 43.2867 32.7273 43.6504 32.87 44.048C33.0996 44.688 33.1017 44.7884 32.8884 44.9234C32.4934 45.1735 32.4094 45.1143 32.0853 44.3585C31.7665 43.6152 31.3302 43.3319 31.5292 43.9973C31.7377 44.6949 32.1852 45.3222 32.5079 45.3694C32.6873 45.3957 33.0023 45.2809 33.2079 45.1146L33.582 44.8118L33.2837 43.9831C32.9991 43.192 32.8863 43.0495 32.696 43.2397ZM18.2987 44.0527C17.7638 44.4272 17.8631 45.3788 18.4725 45.718C18.869 45.9388 18.9593 45.9388 19.3559 45.718C19.9349 45.3958 20.04 44.6007 19.5662 44.1271C19.1691 43.7303 18.7908 43.7081 18.2987 44.0527ZM19.3043 44.3699C19.7619 44.8274 19.5448 45.4019 18.9142 45.4019C18.5104 45.4019 18.2717 45.1627 18.2717 44.7582C18.2717 44.5811 18.7365 44.1177 18.9142 44.1177C18.9898 44.1177 19.1654 44.2312 19.3043 44.3699ZM29.3949 44.2973C28.8442 44.4562 28.6464 44.8564 29.1885 44.7147C29.5171 44.6288 29.5593 44.7007 29.7571 45.6829C29.8149 45.9699 29.9598 46.2046 30.0791 46.2046C30.2475 46.2046 30.2625 46.0879 30.1466 45.684C29.9257 44.9139 29.9606 44.4387 30.2381 44.4387C30.3706 44.4387 30.4791 44.3665 30.4791 44.2782C30.4791 44.0859 30.1043 44.0926 29.3949 44.2973ZM21.4287 44.8929C20.8545 45.527 21.2949 46.5257 22.1488 46.5257C22.7213 46.5257 23.1305 46.1669 23.1305 45.6651C23.1305 44.75 22.016 44.2443 21.4287 44.8929ZM22.6021 45.1534C23.0289 45.6673 22.4021 46.4567 21.8456 46.1064C21.4625 45.8652 21.4154 45.4934 21.7285 45.1806C22.0512 44.8582 22.3493 44.8489 22.6021 45.1534Z" fill="black"/>
</svg>
